<svg viewBox="0 0 192 192" xmlns="http://www.w3.org/2000/svg">
  <rect width="192" height="192" rx="44" fill="#ffffff" />
  <rect x="4" y="4" width="184" height="184" rx="40" fill="none" stroke="#000000" stroke-width="6" />

  <path
    d="M 34 115 C 47 131 63 139 86 139 H 130 C 142 139 150 131 150 120 C 150 110 143 103 133 103 H 115 C 102 109 91 113 76 113 C 61 113 49 110 39 104 Z"
    fill="#000000"
  />

  <path
    d="M 45 108 C 58 115 72 118 88 118 C 102 118 113 114 124 109"
    fill="none"
    stroke="#ffffff"
    stroke-width="7"
    stroke-linecap="round"
  />

  <path
    d="M 61 100 L 73 96 L 85 94"
    fill="none"
    stroke="#ffffff"
    stroke-width="6"
    stroke-linecap="round"
  />

  <rect x="118" y="121" width="22" height="6" rx="3" fill="#ffffff" />
</svg>
